<svg width="271" height="61" viewBox="0 0 271 61" fill="none" xmlns="http://www.w3.org/2000/svg">
<path d="M46.4236 48.8438L42.1406 58.2983H43.532L44.5716 55.9346H49.6001L50.6397 58.2983H52.0575L47.7621 48.8438H46.4252H46.4236ZM45.0463 54.8547L47.0851 50.2146L49.1239 54.8547H45.0463Z" fill="white"/>
<path d="M60.7145 55.888L55.0401 48.8438H53.9336V58.2983H55.2845V51.2525L60.9573 58.2983H62.0654V48.8438H60.7145V55.888Z" fill="white"/>
<path d="M72.0283 49.4382C71.2579 49.0414 70.3693 48.8438 69.3608 48.8438H65.375V58.2983H69.3608C70.3693 58.2983 71.2579 58.1007 72.0283 57.7039C72.7987 57.3071 73.3979 56.7547 73.8243 56.042C74.2523 55.3309 74.4655 54.5062 74.4655 53.571C74.4655 52.6358 74.2523 51.8111 73.8243 51.1C73.3963 50.3889 72.7971 49.835 72.0283 49.4382ZM72.643 55.4289C72.3271 55.9658 71.8836 56.3812 71.3124 56.6784C70.7397 56.9756 70.0627 57.125 69.2798 57.125H66.7259V50.0201H69.2798C70.0627 50.0201 70.7412 50.1679 71.3124 50.4651C71.8836 50.7624 72.3271 51.1763 72.643 51.7084C72.9574 52.2406 73.1162 52.8615 73.1162 53.5726C73.1162 54.2837 72.959 54.8936 72.643 55.4289Z" fill="white"/>
<path d="M78.3587 48.8438H77.0078V58.2983H78.3587V48.8438Z" fill="white"/>
<path d="M81.0853 50.0186H84.5029V55.3262C84.5029 56.6053 83.9629 57.2448 82.8812 57.2448C82.4844 57.2448 82.1218 57.1484 81.7934 56.9538C81.465 56.7609 81.1693 56.4839 80.9078 56.1229L80.125 57.041C80.4316 57.4829 80.8269 57.8206 81.314 58.054C81.7996 58.2889 82.3225 58.4056 82.8812 58.4056C83.854 58.4056 84.5901 58.1442 85.0897 57.6229C85.5893 57.1001 85.8398 56.3128 85.8398 55.2593V48.8438H81.0853V50.0186Z" fill="white"/>
<path d="M96.9283 50.1052C96.4738 49.668 95.9416 49.3303 95.3346 49.0923C94.7261 48.8542 94.0631 48.7344 93.3425 48.7344C92.6219 48.7344 91.9418 48.8557 91.3302 49.0985C90.717 49.3412 90.1863 49.682 89.7365 50.1177C89.2867 50.5549 88.935 51.0653 88.6829 51.6504C88.4307 52.2355 88.3047 52.875 88.3047 53.569C88.3047 54.263 88.4307 54.901 88.6829 55.4876C88.935 56.0727 89.2867 56.5831 89.7365 57.0203C90.1863 57.4576 90.7201 57.7968 91.3364 58.0395C91.9527 58.2823 92.6219 58.4036 93.3425 58.4036C94.0631 58.4036 94.7276 58.2838 95.3346 58.0457C95.9431 57.8077 96.4738 57.47 96.9283 57.0328C97.3827 56.5955 97.7345 56.0851 97.9819 55.5C98.2294 54.915 98.3539 54.2708 98.3539 53.569C98.3539 52.8672 98.2294 52.223 97.9819 51.6379C97.7345 51.0529 97.3827 50.5409 96.9283 50.1052ZM96.726 55.0146C96.5408 55.4565 96.284 55.8408 95.9556 56.1691C95.6272 56.4975 95.2397 56.7527 94.7946 56.9316C94.3479 57.1121 93.8639 57.2024 93.3425 57.2024C92.8211 57.2024 92.3231 57.1121 91.8765 56.9316C91.4313 56.7527 91.0407 56.4975 90.7077 56.1691C90.3746 55.8408 90.1147 55.4565 89.9311 55.0146C89.7458 54.5742 89.654 54.0918 89.654 53.569C89.654 53.0462 89.7458 52.5654 89.9311 52.1234C90.1163 51.6831 90.3746 51.2972 90.7077 50.9689C91.0407 50.6405 91.4298 50.3853 91.8765 50.2048C92.3216 50.0259 92.8103 49.9356 93.3425 49.9356C93.8748 49.9356 94.3495 50.0259 94.7946 50.2048C95.2397 50.3853 95.6272 50.639 95.9556 50.9689C96.284 51.2972 96.5408 51.6831 96.726 52.1234C96.9112 52.5654 97.003 53.0462 97.003 53.569C97.003 54.0918 96.9112 54.5726 96.726 55.0146Z" fill="white"/>
<path d="M107.673 55.888L101.999 48.8438H100.891V58.2983H102.242V51.2525L107.916 58.2983H109.024V48.8438H107.673V55.888Z" fill="white"/>
<path d="M114.641 59.6495H115.817L120.275 46.9258H119.1L114.641 59.6495Z" fill="white"/>
<path d="M131.246 51.5306C130.706 51.2241 130.084 51.0716 129.382 51.0716C128.787 51.0716 128.246 51.207 127.754 51.4777C127.415 51.6645 127.127 51.9196 126.882 52.234V48.2754H125.586V58.2979H126.828V57.1635C127.074 57.4996 127.373 57.7688 127.726 57.968C128.218 58.2434 128.769 58.3803 129.38 58.3803C130.082 58.3803 130.705 58.2278 131.245 57.9213C131.785 57.6148 132.213 57.1868 132.529 56.6376C132.843 56.0883 133.002 55.4487 133.002 54.719C133.002 53.9892 132.845 53.3528 132.529 52.8081C132.213 52.2635 131.786 51.8372 131.245 51.5322L131.246 51.5306ZM131.374 56.0478C131.162 56.4306 130.874 56.7263 130.509 56.9332C130.144 57.1402 129.732 57.2444 129.273 57.2444C128.814 57.2444 128.415 57.1402 128.05 56.9332C127.685 56.7263 127.398 56.4306 127.186 56.0478C126.974 55.665 126.868 55.2216 126.868 54.7174C126.868 54.2132 126.974 53.7604 127.186 53.387C127.398 53.0135 127.685 52.7241 128.05 52.5156C128.414 52.3087 128.822 52.2044 129.273 52.2044C129.724 52.2044 130.144 52.3087 130.509 52.5156C130.873 52.7226 131.161 53.0135 131.374 53.387C131.586 53.7604 131.691 54.2039 131.691 54.7174C131.691 55.2309 131.586 55.665 131.374 56.0478Z" fill="white"/>
<path d="M137.661 56.8606L135.165 51.1406H133.814L136.973 58.2813L136.744 58.7855C136.564 59.1994 136.371 59.4872 136.164 59.6491C135.957 59.8109 135.695 59.8918 135.381 59.8918C135.138 59.8918 134.908 59.8467 134.692 59.7564C134.475 59.6662 134.278 59.5355 134.097 59.3643L133.543 60.3368C133.776 60.5531 134.057 60.7165 134.38 60.8301C134.704 60.9421 135.037 60.9997 135.379 60.9997C135.748 60.9997 136.086 60.939 136.393 60.8177C136.698 60.6963 136.979 60.4909 137.236 60.203C137.493 59.9152 137.725 59.5184 137.932 59.0142L141.404 51.1406H140.134L137.659 56.8606H137.661Z" fill="white"/>
<path d="M146.023 50.0186H149.265V58.2983H150.602V50.0186H153.844V48.8438H146.023V50.0186Z" fill="white"/>
<path d="M162.638 48.8438H161.166L158.542 52.4693L155.898 48.8438H154.357L157.694 53.4527L154.141 58.2983H155.695L158.494 54.4004L161.328 58.2983H162.881L159.306 53.4076L162.638 48.8438Z" fill="white"/>
<path d="M163.18 50.0186H166.423V58.2983H167.76V50.0186H171.002V48.8438H163.18V50.0186Z" fill="white"/>
<path d="M178.694 50.963C179.032 50.6394 179.434 50.3873 179.897 50.2068C180.361 50.0278 180.864 49.9376 181.404 49.9376C181.944 49.9376 182.428 50.0247 182.882 50.2006C183.337 50.3764 183.759 50.6534 184.146 51.0315L184.983 50.1943C184.551 49.7073 184.025 49.3432 183.402 49.1004C182.781 48.8577 182.096 48.7363 181.349 48.7363C180.602 48.7363 179.935 48.8561 179.323 49.0942C178.711 49.3323 178.178 49.67 177.723 50.1072C177.269 50.5444 176.915 51.0548 176.663 51.6399C176.411 52.225 176.285 52.8692 176.285 53.571C176.285 54.2727 176.411 54.9169 176.663 55.502C176.915 56.0871 177.267 56.599 177.717 57.0347C178.167 57.472 178.699 57.8096 179.311 58.0477C179.922 58.2858 180.595 58.4056 181.323 58.4056C181.989 58.4056 182.635 58.3044 183.262 58.1022C183.888 57.8999 184.436 57.5996 184.904 57.2043V53.5165H183.608V56.5881C183.363 56.7484 183.11 56.8775 182.844 56.9678C182.38 57.125 181.896 57.2043 181.391 57.2043C180.851 57.2043 180.352 57.1141 179.891 56.9336C179.432 56.7546 179.034 56.4994 178.696 56.1711C178.358 55.8428 178.097 55.4553 177.913 55.0087C177.729 54.5637 177.636 54.0829 177.636 53.571C177.636 53.059 177.728 52.5642 177.913 52.1192C178.098 51.6726 178.36 51.2882 178.696 50.9646L178.694 50.963Z" fill="white"/>
<path d="M193.763 55.0286C194.348 54.7672 194.798 54.3922 195.114 53.9005C195.428 53.4103 195.587 52.8222 195.587 52.1375C195.587 51.4528 195.428 50.8631 195.114 50.3683C194.799 49.8735 194.348 49.4953 193.763 49.2339C193.178 48.9725 192.471 48.8418 191.642 48.8418H187.953V58.2963H189.304V55.4192H191.642C191.85 55.4192 192.049 55.4114 192.242 55.3943L194.276 58.2963H195.749L193.501 55.1251C193.59 55.094 193.68 55.0644 193.763 55.0271V55.0286ZM191.601 54.2724H189.304V50.0182H191.601C192.466 50.0182 193.122 50.2033 193.567 50.5721C194.013 50.9409 194.236 51.4637 194.236 52.139C194.236 52.8144 194.013 53.3388 193.567 53.7122C193.122 54.0857 192.466 54.2724 191.601 54.2724Z" fill="white"/>
<path d="M206.104 50.1052C205.65 49.668 205.117 49.3303 204.51 49.0923C203.902 48.8542 203.239 48.7344 202.518 48.7344C201.798 48.7344 201.118 48.8557 200.506 49.0985C199.893 49.3412 199.362 49.682 198.912 50.1177C198.463 50.5549 198.111 51.0653 197.859 51.6504C197.607 52.2355 197.48 52.875 197.48 53.569C197.48 54.263 197.607 54.901 197.859 55.4876C198.111 56.0727 198.461 56.5831 198.912 57.0203C199.362 57.4576 199.896 57.7968 200.512 58.0395C201.128 58.2823 201.798 58.4036 202.518 58.4036C203.239 58.4036 203.903 58.2838 204.51 58.0457C205.117 57.8077 205.65 57.47 206.104 57.0328C206.559 56.5955 206.91 56.0851 207.158 55.5C207.405 54.915 207.53 54.2708 207.53 53.569C207.53 52.8672 207.407 52.223 207.158 51.6379C206.91 51.0529 206.559 50.5409 206.104 50.1052ZM205.902 55.0146C205.717 55.4565 205.46 55.8408 205.131 56.1691C204.803 56.4975 204.415 56.7527 203.969 56.9316C203.522 57.1121 203.04 57.2024 202.517 57.2024C201.994 57.2024 201.497 57.1121 201.051 56.9316C200.604 56.7527 200.215 56.4975 199.882 56.1691C199.549 55.8408 199.289 55.4565 199.105 55.0146C198.922 54.5742 198.828 54.0918 198.828 53.569C198.828 53.0462 198.92 52.5654 199.105 52.1234C199.29 51.6831 199.549 51.2972 199.882 50.9689C200.215 50.6405 200.604 50.3853 201.051 50.2048C201.497 50.0259 201.984 49.9356 202.517 49.9356C203.049 49.9356 203.524 50.0259 203.969 50.2048C204.415 50.3853 204.801 50.639 205.131 50.9689C205.46 51.2972 205.717 51.6831 205.902 52.1234C206.087 52.5654 206.179 53.0462 206.179 53.569C206.179 54.0918 206.087 54.5726 205.902 55.0146Z" fill="white"/>
<path d="M216.674 54.1654C216.674 55.2189 216.442 55.9891 215.979 56.4746C215.515 56.9616 214.855 57.2044 214 57.2044C213.146 57.2044 212.499 56.9616 212.035 56.4746C211.571 55.9891 211.339 55.2189 211.339 54.1654V48.8438H209.988V54.2183C209.988 55.5876 210.345 56.6271 211.056 57.3382C211.767 58.0493 212.745 58.4056 213.988 58.4056C215.232 58.4056 216.218 58.0493 216.926 57.3382C217.633 56.6271 217.986 55.5876 217.986 54.2183V48.8438H216.676V54.1654H216.674Z" fill="white"/>
<path d="M227.036 49.2339C226.451 48.9725 225.745 48.8418 224.915 48.8418H221.227V58.2963H222.577V55.4332H224.915C225.745 55.4332 226.451 55.3009 227.036 55.0348C227.622 54.7688 228.071 54.3906 228.387 53.9005C228.702 53.4103 228.86 52.8222 228.86 52.1375C228.86 51.4528 228.702 50.8631 228.387 50.3683C228.073 49.8735 227.622 49.4953 227.036 49.2339ZM226.84 53.7044C226.395 54.0732 225.74 54.2584 224.875 54.2584H222.577V50.0182H224.875C225.74 50.0182 226.395 50.2033 226.84 50.5721C227.287 50.9409 227.509 51.4637 227.509 52.139C227.509 52.8144 227.287 53.3372 226.84 53.706V53.7044Z" fill="white"/>
<path d="M15.1166 20.9155L8.44463 13.7048C7.6011 12.8007 6.94588 11.8204 6.49766 10.7888C6.05722 9.77421 5.83311 8.79391 5.83311 7.87273C5.83311 6.62167 6.2004 5.69738 6.95367 5.04851C7.74739 4.36541 8.74967 4.03241 10.0181 4.03241C10.7885 4.03241 11.5324 4.16935 12.2296 4.4401C12.916 4.70774 13.5027 5.10297 14.0241 5.6507C14.5408 6.19532 14.947 6.88931 15.2318 7.71557L15.4325 8.29909H17.8386L17.5787 2.25075L17.0262 2.05624C14.7197 1.24243 12.2312 0.830078 9.62588 0.830078C6.77158 0.830078 4.45732 1.59565 2.75003 3.10657C1.0085 4.64238 0.126062 6.60922 0.126062 8.95107C0.126062 10.3795 0.482461 11.878 1.18592 13.4076C1.87537 14.906 2.89944 16.3936 4.23165 17.8267L10.9067 25.0406C11.8826 26.0769 12.6125 27.1194 13.0794 28.1402C13.5323 29.1345 13.761 30.0852 13.761 30.9691C13.761 32.2964 13.372 33.2985 12.5704 34.0329C11.7487 34.7876 10.6733 35.1533 9.28193 35.1533C8.35592 35.1533 7.4299 34.9619 6.52723 34.5838C5.63079 34.2088 4.82306 33.6424 4.12582 32.9017C3.43792 32.1703 2.92745 31.2569 2.6084 30.1848L2.42476 29.5655H0L0.189872 35.4334L0.519813 35.6823C1.67928 36.5615 3.06129 37.2353 4.62851 37.6881C6.17239 38.1331 7.73805 38.3603 9.28193 38.3603C11.2943 38.3603 13.0747 38.0117 14.5719 37.3255C16.1018 36.6237 17.3048 35.6294 18.1437 34.3706C18.9887 33.104 19.4167 31.646 19.4167 30.0417C19.4167 28.6117 19.0417 27.093 18.304 25.5292C17.5834 24.0042 16.5126 22.456 15.115 20.9217L15.1166 20.9155Z" fill="white"/>
<path d="M57.6249 29.0975C59.3135 26.197 60.171 22.9822 60.171 19.5418C60.171 16.1014 59.3151 12.8866 57.6249 9.98617C55.9378 7.09037 53.6142 4.76564 50.7164 3.07889C47.8154 1.39058 44.6 0.533203 41.159 0.533203C37.7179 0.533203 34.501 1.38903 31.6016 3.07889C28.7052 4.76564 26.3801 7.08881 24.693 9.98617C23.0044 12.8866 22.1484 16.1014 22.1484 19.5418C22.1484 22.9822 23.0044 26.1986 24.693 29.0975C26.3801 31.9948 28.7052 34.318 31.6016 36.0048C34.501 37.6931 37.7179 38.5504 41.159 38.5504C44.6 38.5504 47.8169 37.6946 50.7164 36.0048C53.6142 34.318 55.9394 31.9933 57.6249 29.0975ZM47.3889 33.2646C45.3548 34.6448 43.0437 35.345 40.5193 35.345C38.2362 35.345 36.1491 34.6526 34.3189 33.2864C32.4544 31.8953 30.9713 29.9813 29.9098 27.5975C28.836 25.1887 28.2928 22.4781 28.2928 19.5403C28.2928 16.6025 28.8827 13.9012 30.0468 11.4815C31.2 9.08366 32.8155 7.16973 34.8512 5.79263C36.8682 4.42798 39.1715 3.73554 41.6975 3.73554C44.0164 3.73554 46.1283 4.42176 47.9772 5.77396C49.8542 7.14794 51.3436 9.06032 52.4034 11.4566C53.4773 13.8825 54.022 16.6025 54.022 19.5403C54.022 22.4781 53.4244 25.1669 52.2462 27.5679C51.0774 29.9518 49.4417 31.8688 47.3889 33.2646Z" fill="white"/>
<path d="M105.288 36.7044L105.275 36.5597C105.213 36.1893 105.159 35.8112 105.109 35.4004C105.064 35.0254 105.042 34.5571 105.042 34.0078V5.46994C105.042 4.92066 105.065 4.45229 105.109 4.07728C105.159 3.6696 105.213 3.27903 105.275 2.91647L105.288 1.70898H98.8945V2.87757L98.9194 2.98027C99.005 3.32571 99.0642 3.68205 99.0922 4.04149C99.1233 4.4305 99.1389 4.91132 99.1389 5.46838V34.0078C99.1389 34.5664 99.1233 35.0457 99.0922 35.4331C99.0626 35.7926 99.005 36.1489 98.9194 36.4943L98.8945 36.597V37.7656H105.288V36.7028V36.7044Z" fill="white"/>
<path d="M209.119 3.07694C206.219 1.38863 203.002 0.53125 199.561 0.53125C196.12 0.53125 192.903 1.38707 190.004 3.07694C187.108 4.76369 184.782 7.08686 183.095 9.98421C181.407 12.8831 180.551 16.0995 180.551 19.5399C180.551 22.9803 181.407 26.1966 183.095 29.0955C184.784 31.9929 187.108 34.3161 190.004 36.0028C192.903 37.6911 196.12 38.5485 199.561 38.5485C203.002 38.5485 206.219 37.6927 209.119 36.0028C212.017 34.3161 214.342 31.9913 216.027 29.0955C217.716 26.1951 218.573 22.9803 218.573 19.5399C218.573 16.0995 217.717 12.8831 216.027 9.98421C214.34 7.08842 212.017 4.76369 209.119 3.07694ZM210.65 27.5691C209.481 29.9545 207.846 31.87 205.793 33.2642C203.759 34.6459 201.448 35.3462 198.923 35.3462C196.64 35.3462 194.553 34.6537 192.723 33.2875C190.858 31.8964 189.375 29.9825 188.312 27.5986C187.24 25.1899 186.695 22.4792 186.695 19.5414C186.695 16.6036 187.285 13.9023 188.449 11.4827C189.602 9.08482 191.219 7.17089 193.254 5.79379C195.271 4.42914 197.575 3.7367 200.1 3.7367C202.417 3.7367 204.531 4.42291 206.38 5.77512C208.258 7.1491 209.747 9.06148 210.807 11.4578C211.881 13.8852 212.424 16.6036 212.424 19.5414C212.424 22.4792 211.827 25.1681 210.649 27.5691H210.65Z" fill="white"/>
<path d="M226.083 12.2212C226.794 11.5318 227.155 10.6791 227.155 9.68637C227.155 8.69361 226.86 7.90314 226.276 7.29473C225.8 6.80146 225.211 6.45447 224.533 6.26619C224.583 6.07012 224.715 5.71223 225.056 5.11316C225.442 4.43472 226.033 3.60068 226.816 2.62971L227.593 1.6603L225.219 0L224.707 0.58196C224.201 1.15614 223.716 1.7241 223.261 2.27649C222.094 3.71894 221.288 4.9311 220.796 5.98454C220.286 7.07533 220.027 8.15522 220.027 9.19621C220.027 10.3539 220.354 11.3187 220.997 12.0656C221.665 12.8405 222.561 13.2497 223.591 13.2497C224.541 13.2497 225.38 12.9043 226.083 12.2212Z" fill="white"/>
<path d="M257.981 2.69085C257.947 2.76554 257.877 2.89625 257.741 3.10009L257.005 4.20332C256.678 4.69348 256.238 5.3299 255.693 6.09703L247.359 17.9323L239.132 6.12503L239.002 5.90563L238.969 5.85584C238.446 5.10583 238.023 4.4943 237.696 4.01971C237.325 3.48287 237.171 3.2059 237.106 3.06585C237.013 2.86668 236.938 2.68618 236.883 2.52746L236.678 1.70898H229.348V3.12965L229.6 3.38329C229.855 3.64003 230.148 3.95591 230.47 4.32314C230.79 4.68881 231.193 5.19296 231.705 5.86829C232.202 6.52649 232.781 7.33408 233.428 8.27082L243.619 22.8198V34.1774C243.619 34.6784 243.597 35.1017 243.554 35.4378C243.506 35.8034 243.45 36.1769 243.387 36.5597L243.375 37.7656H249.768V36.7028L249.756 36.5597C249.692 36.1785 249.636 35.8066 249.589 35.4393C249.546 35.1001 249.522 34.6753 249.522 34.1789V20.4095L258.09 8.2786C258.734 7.37765 259.313 6.59496 259.811 5.95231C260.312 5.305 260.734 4.76972 261.075 4.34803C261.399 3.94813 261.683 3.62447 261.922 3.3864L262.175 3.13276V1.71054H258.23L257.983 2.6924L257.981 2.69085Z" fill="white"/>
<path d="M270.824 35.4004C270.779 35.0254 270.757 34.5571 270.757 34.0078V5.46994C270.757 4.92066 270.78 4.45229 270.824 4.07728C270.874 3.66182 270.928 3.28214 270.99 2.91647L271.003 1.70898H264.609V2.87757L264.636 2.98027C264.721 3.32571 264.779 3.68205 264.809 4.04149C264.84 4.42895 264.855 4.90821 264.855 5.46838V34.0078C264.855 34.5679 264.84 35.0488 264.809 35.4347C264.779 35.7941 264.721 36.1504 264.636 36.4959L264.609 36.5986V37.7672H271.003V36.7044L270.99 36.5597C270.928 36.1925 270.874 35.8128 270.824 35.4004Z" fill="white"/>
<path d="M85.1652 15.9176V34.0066C85.1652 34.559 85.1434 35.0165 85.0983 35.3697C85.0547 35.7105 84.9753 36.0746 84.8601 36.448L84.8212 36.5725V37.766H91.3127V36.7032L91.3002 36.5601C91.2364 36.1804 91.1804 35.7898 91.1352 35.3977C91.0901 35.0243 91.0668 34.5574 91.0668 34.0051V5.47034C91.0668 4.9195 91.0901 4.45113 91.1352 4.07612C91.1819 3.684 91.238 3.29343 91.3002 2.91687L91.3127 1.71094H84.8212V2.90442L84.8601 3.02891C84.9753 3.40547 85.0562 3.76803 85.0983 4.10724C85.1418 4.46047 85.1652 4.9195 85.1652 5.47034V10.5742C84.6671 10.2925 84.0851 10.0638 83.4159 9.96886C81.5545 9.70589 79.6075 10.5213 77.6263 12.3916C76.0902 13.8403 74.6008 14.5078 73.1986 14.3709C72.1138 14.2666 71.2578 13.6925 70.7162 13.2117V5.47034C70.7162 4.92261 70.738 4.46358 70.7832 4.10724C70.8267 3.76491 70.9061 3.40236 71.0213 3.02891L71.0602 2.90442V1.71094H64.5703V2.87953L64.5968 2.98222C64.6824 3.32611 64.74 3.684 64.7695 4.04189C64.8006 4.4309 64.8162 4.91172 64.8162 5.46878V34.0082C64.8162 34.5668 64.8006 35.046 64.7695 35.4335C64.74 35.7929 64.6824 36.1508 64.5968 36.4947L64.5703 36.5974V37.766H71.0602V36.5725L71.0213 36.448C70.9061 36.0761 70.8267 35.7136 70.7832 35.3713C70.7396 35.0134 70.7162 34.5543 70.7162 34.0066V18.2579C71.4633 18.6671 72.3582 18.9861 73.3636 19.0048C73.3962 19.0048 73.4274 19.0048 73.46 19.0048C75.2016 19.0048 76.8373 18.1179 78.3236 16.3673C79.4815 15.0042 80.683 14.3118 81.9202 14.3413C83.3676 14.3647 84.5738 15.3372 85.1683 15.9176H85.1652Z" fill="white"/>
<path d="M119.019 37.7676H132.506V34.2198H131.313L131.188 34.2587C130.816 34.3738 130.454 34.4532 130.111 34.4968C129.758 34.5403 129.299 34.5637 128.748 34.5637H119.021V5.47034C119.021 4.92417 119.043 4.46513 119.088 4.10724C119.131 3.76491 119.211 3.40236 119.326 3.02891L119.365 2.90442V1.71094H112.875V2.87953L112.901 2.98222C112.987 3.32767 113.046 3.684 113.074 4.04189C113.105 4.4309 113.121 4.91172 113.121 5.46878V34.0082C113.121 34.5668 113.105 35.046 113.074 35.4351C113.046 35.7945 112.987 36.1508 112.901 36.4963L112.875 36.599V37.7676H119.022H119.019Z" fill="white"/>
<path d="M177.99 32.237C179.212 30.432 179.831 28.3049 179.831 25.9163C179.831 23.7426 179.229 21.8286 178.042 20.2275C176.873 18.6512 175.206 17.4157 173.085 16.5567C172.314 16.2455 171.491 15.9903 170.62 15.7943C170.962 15.55 171.283 15.2792 171.58 14.9867C173.019 13.566 173.751 11.7828 173.751 9.68682C173.751 7.20026 172.665 5.21008 170.523 3.76919C168.49 2.40298 165.736 1.70898 162.34 1.70898H152.105V2.77176L152.116 2.91336C152.18 3.2977 152.236 3.68827 152.283 4.07573C152.328 4.44762 152.35 4.91599 152.35 5.46838V34.0078C152.35 34.5602 152.326 35.0285 152.283 35.4004C152.236 35.7848 152.182 36.1769 152.116 36.5628L152.105 37.7672H165.135C168.052 37.7672 170.632 37.2988 172.806 36.3745C175.029 35.43 176.773 34.0373 177.99 32.237ZM171.362 32.293C169.737 33.7993 167.477 34.5617 164.645 34.5617H158.253V4.91443H161.85C163.683 4.91443 165.14 5.37813 166.181 6.29309C167.203 7.19092 167.7 8.3813 167.7 9.93267C167.7 11.3985 167.199 12.5079 166.167 13.3217C165.068 14.19 163.478 14.7051 161.433 14.8544L159.461 15.0194V17.9821L161.966 18.0552C165.737 18.1797 168.71 18.9639 170.802 20.3831C172.806 21.743 173.782 23.6181 173.782 26.114C173.782 28.7624 172.99 30.7837 171.362 32.2946V32.293Z" fill="white"/>
</svg>
